; NON-PLATED HOLES START AT T1
; THROUGH (PLATED) HOLES START AT T100
M48
INCH
T1C0.086614
T100C0.035000
T101C0.039370
T102C0.038000
T103C0.031497
%
T1
X001299Y001337
X023299Y017837
T100
X010299Y011837
X014299Y011837
T101
X007340Y016375
X020695Y000955
X021302Y014810
X019695Y000955
X013169Y016359
X017695Y000955
X022695Y000955
X014169Y016359
X018695Y000955
X020302Y014810
X019302Y014810
X005340Y016375
X021695Y000955
X018302Y014810
X004340Y016375
X006340Y016375
T102
X013799Y007837
X013799Y004837
X007799Y005837
X000799Y004337
X007799Y003837
X007799Y006837
X000799Y006337
X013799Y002837
X007799Y001837
X000799Y011337
X000799Y013337
X000799Y014337
X013799Y005837
X013799Y000839
X013799Y003837
X007799Y007837
X007799Y004837
X000799Y007337
X000799Y003337
X007799Y000837
X013799Y006837
X000799Y010337
X007799Y002837
X013799Y001837
T103
X008783Y011837
X007799Y011837
T00
M30
